<svg xmlns="http://www.w3.org/2000/svg" viewBox="0 0 24 24" fill="none">
  <path d="M5.1 3.5 8.7 3c.5-.1 1 .2 1.2.7l1.2 3.1c.2.5.1 1-.3 1.4L9 9.8a14.3 14.3 0 0 0 5.2 5.2l1.6-1.8c.4-.4.9-.5 1.4-.3l3.1 1.2c.5.2.8.7.7 1.2l-.5 3.6c-.1.7-.7 1.2-1.4 1.2C11 20.1 3.9 13 3.9 4.9c0-.7.5-1.3 1.2-1.4Z" stroke="#11181c" stroke-width="1.8" stroke-linecap="round" stroke-linejoin="round"/>
  <path d="M14.7 4.5c2.4.5 4.3 2.4 4.8 4.8M14.8 7.5c.9.2 1.6.9 1.8 1.8" stroke="#11181c" stroke-width="1.8" stroke-linecap="round"/>
</svg>
