<svg xmlns="http://www.w3.org/2000/svg" viewBox="0 0 512 512">
  <rect width="512" height="512" rx="112" fill="#08090D"/>
  <circle cx="336" cy="136" r="176" fill="#D6B36A" opacity=".18"/>
  <circle cx="162" cy="350" r="132" fill="#78A6FF" opacity=".14"/>
  <path d="M93 374c88-96 165-143 326-169" stroke="#D6B36A" stroke-width="10" stroke-linecap="round" opacity=".72"/>
  <path d="M118 132h276v248H118z" fill="#161A23" stroke="#E8E2D6" stroke-opacity=".14" stroke-width="8" rx="62"/>
  <path d="M150 354V142h97c53 0 88 31 88 78 0 31-15 55-41 68l59 66h-58l-51-58h-43v58h-51Zm51-101h43c25 0 40-12 40-33 0-22-15-34-40-34h-43v67Zm186 101V142h51v212h-51Z" fill="#F3EFE7"/>
  <circle cx="113" cy="372" r="17" fill="#D6B36A"/>
  <circle cx="415" cy="204" r="13" fill="#78A6FF"/>
</svg>
